<svg width="128" height="128" viewBox="0 0 128 128" xmlns="http://www.w3.org/2000/svg">
  <defs>
    <linearGradient id="bgGrad" x1="0%" y1="0%" x2="100%" y2="100%">
      <stop offset="0%" style="stop-color:#1e40af;stop-opacity:1" />
      <stop offset="30%" style="stop-color:#3b82f6;stop-opacity:1" />
      <stop offset="70%" style="stop-color:#8b5cf6;stop-opacity:1" />
      <stop offset="100%" style="stop-color:#ec4899;stop-opacity:1" />
    </linearGradient>
    <linearGradient id="tabGrad" x1="0%" y1="0%" x2="100%" y2="100%">
      <stop offset="0%" style="stop-color:#ffffff;stop-opacity:1" />
      <stop offset="100%" style="stop-color:#f8fafc;stop-opacity:1" />
    </linearGradient>
    <radialGradient id="glowGrad" cx="50%" cy="50%" r="50%">
      <stop offset="0%" style="stop-color:#ffffff;stop-opacity:0.3" />
      <stop offset="100%" style="stop-color:#ffffff;stop-opacity:0" />
    </radialGradient>
    <filter id="shadow" x="-50%" y="-50%" width="200%" height="200%">
      <feDropShadow dx="0" dy="4" stdDeviation="8" flood-color="#000000" flood-opacity="0.25"/>
    </filter>
    <filter id="innerShadow" x="-50%" y="-50%" width="200%" height="200%">
      <feDropShadow dx="0" dy="2" stdDeviation="4" flood-color="#000000" flood-opacity="0.1"/>
    </filter>
  </defs>

  <!-- Background with modern gradient and rounded corners -->
  <rect width="128" height="128" rx="28" fill="url(#bgGrad)" filter="url(#shadow)"/>

  <!-- Subtle glow overlay -->
  <rect width="128" height="128" rx="28" fill="url(#glowGrad)"/>

  <!-- Main browser window -->
  <rect x="20" y="24" width="88" height="64" rx="12" fill="#ffffff" stroke="#e1e5e9" stroke-width="1.5" filter="url(#innerShadow)"/>

  <!-- Window title bar -->
  <rect x="20" y="24" width="88" height="20" rx="12" fill="#f8fafc"/>
  <rect x="20" y="36" width="88" height="8" fill="#f1f5f9"/>

  <!-- Traffic light controls -->
  <circle cx="32" cy="34" r="3.5" fill="#ff5f57"/>
  <circle cx="44" cy="34" r="3.5" fill="#ffbd2e"/>
  <circle cx="56" cy="34" r="3.5" fill="#28ca42"/>

  <!-- Tab container -->
  <rect x="24" y="44" width="80" height="16" fill="#ffffff" rx="2"/>

  <!-- Tab 1 (Active) -->
  <rect x="26" y="46" width="18" height="12" rx="6" fill="url(#tabGrad)" stroke="#3b82f6" stroke-width="1.5"/>
  <rect x="28" y="49" width="8" height="1.5" rx="0.5" fill="#3b82f6"/>
  <rect x="28" y="52" width="6" height="1" rx="0.5" fill="#64748b" opacity="0.7"/>

  <!-- Tab 2 -->
  <rect x="46" y="46" width="16" height="12" rx="6" fill="#f8fafc" stroke="#cbd5e1" stroke-width="1"/>
  <rect x="48" y="49" width="7" height="1.5" rx="0.5" fill="#64748b" opacity="0.5"/>
  <rect x="48" y="52" width="5" height="1" rx="0.5" fill="#94a3b8" opacity="0.4"/>

  <!-- Tab 3 -->
  <rect x="64" y="46" width="16" height="12" rx="6" fill="#f8fafc" stroke="#cbd5e1" stroke-width="1"/>
  <rect x="66" y="49" width="7" height="1.5" rx="0.5" fill="#64748b" opacity="0.4"/>
  <rect x="66" y="52" width="4" height="1" rx="0.5" fill="#94a3b8" opacity="0.3"/>

  <!-- Tab 4 -->
  <rect x="82" y="46" width="16" height="12" rx="6" fill="#f8fafc" stroke="#cbd5e1" stroke-width="1"/>
  <rect x="84" y="49" width="6" height="1.5" rx="0.5" fill="#64748b" opacity="0.3"/>
  <rect x="84" y="52" width="4" height="1" rx="0.5" fill="#94a3b8" opacity="0.2"/>

  <!-- Content area -->
  <rect x="28" y="62" width="72" height="22" fill="#ffffff" rx="4"/>
  <rect x="32" y="66" width="20" height="1.5" rx="0.5" fill="#e2e8f0"/>
  <rect x="32" y="69" width="28" height="1.5" rx="0.5" fill="#e2e8f0"/>
  <rect x="32" y="72" width="16" height="1.5" rx="0.5" fill="#e2e8f0"/>
  <rect x="32" y="75" width="24" height="1.5" rx="0.5" fill="#e2e8f0"/>
  <rect x="32" y="78" width="12" height="1.5" rx="0.5" fill="#e2e8f0"/>

  <!-- Advanced Tab Manager Logo/Symbol -->
  <circle cx="64" cy="104" r="18" fill="#ffffff" stroke="#3b82f6" stroke-width="3" filter="url(#shadow)"/>

  <!-- Tab organization symbol - layered tabs icon -->
  <rect x="56" y="96" width="6" height="8" rx="2" fill="#3b82f6" opacity="0.3"/>
  <rect x="58" y="98" width="6" height="8" rx="2" fill="#3b82f6" opacity="0.6"/>
  <rect x="60" y="100" width="6" height="8" rx="2" fill="#3b82f6"/>

  <!-- Management arrows/organization lines -->
  <path d="M52 104 L60 104" stroke="#8b5cf6" stroke-width="2" stroke-linecap="round"/>
  <path d="M68 104 L76 104" stroke="#8b5cf6" stroke-width="2" stroke-linecap="round"/>
  <path d="M64 96 L64 88" stroke="#8b5cf6" stroke-width="2" stroke-linecap="round"/>
  <path d="M64 112 L64 120" stroke="#8b5cf6" stroke-width="2" stroke-linecap="round"/>

  <!-- Arrow heads for organization -->
  <path d="M58 102 L60 104 L58 106" stroke="#8b5cf6" stroke-width="1.5" fill="none" stroke-linecap="round"/>
  <path d="M70 102 L68 104 L70 106" stroke="#8b5cf6" stroke-width="1.5" fill="none" stroke-linecap="round"/>

  <!-- Subtle highlight on main circle -->
  <circle cx="64" cy="104" r="18" fill="url(#glowGrad)" opacity="0.4"/>
</svg>
